<svg id="SvgjsSvg1006" width="1272.53125" height="865.421875" xmlns="http://www.w3.org/2000/svg" version="1.1" xmlns:xlink="http://www.w3.org/1999/xlink" xmlns:svgjs="http://svgjs.com/svgjs"><defs id="SvgjsDefs1007"><pattern id="SvgjsPattern1010" x="0" y="0" width="57" height="50" patternUnits="userSpaceOnUse"><image id="SvgjsImage1011" xlink:href="https://iconsapi.com/5ee263aae4b0b788a932cbc9.svg" width="57" height="50" preserveAspectRatio="none" crossOrigin="anonymous" x="0" y="0"></image></pattern><pattern id="SvgjsPattern1014" x="0" y="0" width="77" height="65" patternUnits="userSpaceOnUse"><image id="SvgjsImage1015" xlink:href="https://www.processon.com/assets/images/designer/network/pc.svg" width="77" height="65" preserveAspectRatio="none" crossOrigin="anonymous" x="0" y="0"></image></pattern><marker id="SvgjsMarker1050" markerWidth="14" markerHeight="10" refX="10" refY="5" viewBox="0 0 14 10" orient="auto" markerUnits="userSpaceOnUse" stroke-dasharray="0,0"><path id="SvgjsPath1051" d="M0,0 L14,5 L0,10 L0,0" fill="#323232" stroke="#323232" stroke-width="1"></path></marker><pattern id="SvgjsPattern1058" x="0" y="0" width="132" height="126.96610169491527" patternUnits="userSpaceOnUse"><image id="SvgjsImage1059" xlink:href="https://iconsapi.com/60ec08aae4b06f79690a783d.svg" width="132" height="126.96610169491527" preserveAspectRatio="none" crossOrigin="anonymous" x="0" y="0"></image></pattern><pattern id="SvgjsPattern1074" x="0" y="0" width="75" height="75" patternUnits="userSpaceOnUse"><image id="SvgjsImage1075" xlink:href="https://www.processon.com/assets/images/designer/network_aws2019/general/Users_light-bg.svg" width="75" height="75" preserveAspectRatio="none" crossOrigin="anonymous" x="0" y="0"></image></pattern><marker id="SvgjsMarker1082" markerWidth="14" markerHeight="10" refX="10" refY="5" viewBox="0 0 14 10" orient="auto" markerUnits="userSpaceOnUse" stroke-dasharray="0,0"><path id="SvgjsPath1083" d="M0,0 L14,5 L0,10 L0,0" fill="#323232" stroke="#323232" stroke-width="1"></path></marker><pattern id="SvgjsPattern1086" x="0" y="0" width="77" height="65" patternUnits="userSpaceOnUse"><image id="SvgjsImage1087" xlink:href="https://www.processon.com/assets/images/designer/network/pc.svg" width="77" height="65" preserveAspectRatio="none" crossOrigin="anonymous" x="0" y="0"></image></pattern><pattern id="SvgjsPattern1112" x="0" y="0" width="36" height="80" patternUnits="userSpaceOnUse"><image id="SvgjsImage1113" xlink:href="https://www.processon.com/assets/images/designer/network/server.svg" width="36" height="80" preserveAspectRatio="none" crossOrigin="anonymous" x="0" y="0"></image></pattern><marker id="SvgjsMarker1118" markerWidth="14" markerHeight="10" refX="10" refY="5" viewBox="0 0 14 10" orient="auto" markerUnits="userSpaceOnUse" stroke-dasharray="0,0"><path id="SvgjsPath1119" d="M0,0 L14,5 L0,10 L0,0" fill="#323232" stroke="#323232" stroke-width="1"></path></marker><pattern id="SvgjsPattern1132" x="0" y="0" width="43.5" height="45.5" patternUnits="userSpaceOnUse"><image id="SvgjsImage1133" xlink:href="https://iconsapi.com/5ee2646ee4b0b788a932f18b.svg" width="43.5" height="45.5" preserveAspectRatio="none" crossOrigin="anonymous" x="0" y="0"></image></pattern><marker id="SvgjsMarker1142" markerWidth="14" markerHeight="10" refX="10" refY="5" viewBox="0 0 14 10" orient="auto" markerUnits="userSpaceOnUse" stroke-dasharray="0,0"><path id="SvgjsPath1143" d="M0,0 L14,5 L0,10 L0,0" fill="#323232" stroke="#323232" stroke-width="1"></path></marker><marker id="SvgjsMarker1150" markerWidth="14" markerHeight="10" refX="10" refY="5" viewBox="0 0 14 10" orient="auto" markerUnits="userSpaceOnUse" stroke-dasharray="0,0"><path id="SvgjsPath1151" d="M0,0 L14,5 L0,10 L0,0" fill="#323232" stroke="#323232" stroke-width="1"></path></marker><marker id="SvgjsMarker1158" markerWidth="14" markerHeight="10" refX="10" refY="5" viewBox="0 0 14 10" orient="auto" markerUnits="userSpaceOnUse" stroke-dasharray="0,0"><path id="SvgjsPath1159" d="M0,0 L14,5 L0,10 L0,0" fill="#323232" stroke="#323232" stroke-width="1"></path></marker><marker id="SvgjsMarker1162" markerWidth="14" markerHeight="10" refX="10" refY="5" viewBox="0 0 14 10" orient="auto" markerUnits="userSpaceOnUse" stroke-dasharray="0,0"><path id="SvgjsPath1163" d="M0,0 L14,5 L0,10 L0,0" fill="#323232" stroke="#323232" stroke-width="1"></path></marker><pattern id="SvgjsPattern1170" x="0" y="0" width="100" height="100" patternUnits="userSpaceOnUse"><image id="SvgjsImage1171" xlink:href="https://iconsapi.com/5ee260ece4b0b788a932a107.svg" width="100" height="100" preserveAspectRatio="none" crossOrigin="anonymous" x="0" y="0"></image></pattern><marker id="SvgjsMarker1174" markerWidth="14" markerHeight="10" refX="10" refY="5" viewBox="0 0 14 10" orient="auto" markerUnits="userSpaceOnUse" stroke-dasharray="0,0"><path id="SvgjsPath1175" d="M0,0 L14,5 L0,10 L0,0" fill="#323232" stroke="#323232" stroke-width="1"></path></marker><pattern id="SvgjsPattern1178" x="0" y="0" width="107" height="104.90196078431372" patternUnits="userSpaceOnUse"><image id="SvgjsImage1179" xlink:href="https://iconsapi.com/5ee27464e4b0b788a9347555.svg" width="107" height="104.90196078431372" preserveAspectRatio="none" crossOrigin="anonymous" x="0" y="0"></image></pattern><marker id="SvgjsMarker1188" markerWidth="14" markerHeight="10" refX="10" refY="5" viewBox="0 0 14 10" orient="auto" markerUnits="userSpaceOnUse" stroke-dasharray="0,0"><path id="SvgjsPath1189" d="M0,0 L14,5 L0,10 L0,0" fill="#323232" stroke="#323232" stroke-width="1"></path></marker><marker id="SvgjsMarker1224" markerWidth="14" markerHeight="10" refX="10" refY="5" viewBox="0 0 14 10" orient="auto" markerUnits="userSpaceOnUse" stroke-dasharray="0,0"><path id="SvgjsPath1225" d="M0,0 L14,5 L0,10 L0,0" fill="#323232" stroke="#323232" stroke-width="1"></path></marker><marker id="SvgjsMarker1228" markerWidth="14" markerHeight="10" refX="10" refY="5" viewBox="0 0 14 10" orient="auto" markerUnits="userSpaceOnUse" stroke-dasharray="0,0"><path id="SvgjsPath1229" d="M0,0 L14,5 L0,10 L0,0" fill="#323232" stroke="#323232" stroke-width="1"></path></marker><pattern id="SvgjsPattern1232" x="0" y="0" width="100" height="100" patternUnits="userSpaceOnUse"><image id="SvgjsImage1233" xlink:href="https://iconsapi.com/5ee264c0e4b0b788a9330064.svg" width="100" height="100" preserveAspectRatio="none" crossOrigin="anonymous" x="0" y="0"></image></pattern><pattern id="SvgjsPattern1242" x="0" y="0" width="25.166666666666515" height="25.777621941718735" patternUnits="userSpaceOnUse"><image id="SvgjsImage1243" xlink:href="https://iconsapi.com/5ee26388e4b0b788a932c082.svg" width="25.166666666666515" height="25.777621941718735" preserveAspectRatio="none" crossOrigin="anonymous" x="0" y="0"></image></pattern><pattern id="SvgjsPattern1252" x="0" y="0" width="100" height="100" patternUnits="userSpaceOnUse"><image id="SvgjsImage1253" xlink:href="https://iconsapi.com/5ee262cde4b0b788a932aba0.svg" width="100" height="100" preserveAspectRatio="none" crossOrigin="anonymous" x="0" y="0"></image></pattern><marker id="SvgjsMarker1256" markerWidth="14" markerHeight="10" refX="10" refY="5" viewBox="0 0 14 10" orient="auto" markerUnits="userSpaceOnUse" stroke-dasharray="0,0"><path id="SvgjsPath1257" d="M0,0 L14,5 L0,10 L0,0" fill="#323232" stroke="#323232" stroke-width="1"></path></marker><pattern id="SvgjsPattern1266" x="0" y="0" width="100" height="100" patternUnits="userSpaceOnUse"><image id="SvgjsImage1267" xlink:href="https://iconsapi.com/5ee264b3e4b0b788a932fe77.svg" width="100" height="100" preserveAspectRatio="none" crossOrigin="anonymous" x="0" y="0"></image></pattern><marker id="SvgjsMarker1270" markerWidth="14" markerHeight="10" refX="10" refY="5" viewBox="0 0 14 10" orient="auto" markerUnits="userSpaceOnUse" stroke-dasharray="0,0"><path id="SvgjsPath1271" d="M0,0 L14,5 L0,10 L0,0" fill="#323232" stroke="#323232" stroke-width="1"></path></marker><marker id="SvgjsMarker1280" markerWidth="14" markerHeight="10" refX="10" refY="5" viewBox="0 0 14 10" orient="auto" markerUnits="userSpaceOnUse" stroke-dasharray="0,0"><path id="SvgjsPath1281" d="M0,0 L14,5 L0,10 L0,0" fill="#323232" stroke="#323232" stroke-width="1"></path></marker><pattern id="SvgjsPattern1284" x="0" y="0" width="77" height="65" patternUnits="userSpaceOnUse"><image id="SvgjsImage1285" xlink:href="https://www.processon.com/assets/images/designer/network/pc.svg" width="77" height="65" preserveAspectRatio="none" crossOrigin="anonymous" x="0" y="0"></image></pattern><marker id="SvgjsMarker1312" markerWidth="14" markerHeight="10" refX="10" refY="5" viewBox="0 0 14 10" orient="auto" markerUnits="userSpaceOnUse" stroke-dasharray="0,0"><path id="SvgjsPath1313" d="M0,0 L14,5 L0,10 L0,0" fill="#323232" stroke="#323232" stroke-width="1"></path></marker><marker id="SvgjsMarker1320" markerWidth="14" markerHeight="10" refX="10" refY="5" viewBox="0 0 14 10" orient="auto" markerUnits="userSpaceOnUse" stroke-dasharray="0,0"><path id="SvgjsPath1321" d="M0,0 L14,5 L0,10 L0,0" fill="#323232" stroke="#323232" stroke-width="1"></path></marker><pattern id="SvgjsPattern1324" x="0" y="0" width="32.45454545454572" height="32.45454545454572" patternUnits="userSpaceOnUse"><image id="SvgjsImage1325" xlink:href="https://www.processon.com/assets/images/designer/network_aliyun/Database/RDS.svg" width="32.45454545454572" height="32.45454545454572" preserveAspectRatio="none" crossOrigin="anonymous" x="0" y="0"></image></pattern><pattern id="SvgjsPattern1330" x="0" y="0" width="36.363636363635806" height="32.45454545454572" patternUnits="userSpaceOnUse"><image id="SvgjsImage1331" xlink:href="https://iconsapi.com/5ee26473e4b0b788a932f26f.svg" width="36.363636363635806" height="32.45454545454572" preserveAspectRatio="none" crossOrigin="anonymous" x="0" y="0"></image></pattern><pattern id="SvgjsPattern1334" x="0" y="0" width="34.181818181817334" height="34.181818181817334" patternUnits="userSpaceOnUse"><image id="SvgjsImage1335" xlink:href="https://iconsapi.com/5ee26c7ce4b0b788a933e960.svg" width="34.181818181817334" height="34.181818181817334" preserveAspectRatio="none" crossOrigin="anonymous" x="0" y="0"></image></pattern><pattern id="SvgjsPattern1360" x="0" y="0" width="39.181818181818244" height="38.81818181818193" patternUnits="userSpaceOnUse"><image id="SvgjsImage1361" xlink:href="https://iconsapi.com/5ee26728e4b0b788a9335781.svg" width="39.181818181818244" height="38.81818181818193" preserveAspectRatio="none" crossOrigin="anonymous" x="0" y="0"></image></pattern><pattern id="SvgjsPattern1364" x="0" y="0" width="30.4166666666664" height="30.4166666666664" patternUnits="userSpaceOnUse"><image id="SvgjsImage1365" xlink:href="https://www.processon.com/assets/images/designer/network_aws2019/general/SDK_light-bg.svg" width="30.4166666666664" height="30.4166666666664" preserveAspectRatio="none" crossOrigin="anonymous" x="0" y="0"></image></pattern></defs><g id="SvgjsG1008" transform="translate(62,200.828125)"><path id="SvgjsPath1009" d="M 0 0L 57 0L 57 50L 0 50Z" stroke="none" fill="url(#SvgjsPattern1010)"></path></g><g id="SvgjsG1012" transform="translate(150.5,193.328125)"><path id="SvgjsPath1013" d="M 0 0L 77 0L 77 65L 0 65Z" stroke="none" fill="url(#SvgjsPattern1014)"></path><g id="SvgjsG1016"><text id="SvgjsText1017" font-family="微软雅黑" text-anchor="middle" font-size="13px" width="117px" fill="#323232" font-weight="400" align="middle" lineHeight="125%" anchor="middle" family="微软雅黑" size="13px" weight="400" font-style="" opacity="1" y="70.375" transform="rotate(0)"></text></g></g><g id="SvgjsG1018" transform="translate(43,184.828125)"><path id="SvgjsPath1019" d="M 0 0L 207 0L 207 121L 0 121Z" stroke-dasharray="3,4" stroke="rgba(50,50,50,1)" stroke-width="3" fill="none"></path><g id="SvgjsG1020"><text id="SvgjsText1021" font-family="微软雅黑" text-anchor="middle" font-size="13px" width="187px" fill="#323232" font-weight="400" align="middle" lineHeight="125%" anchor="middle" family="微软雅黑" size="13px" weight="400" font-style="" opacity="1" y="50.875" transform="rotate(0)"></text></g></g><g id="SvgjsG1022" transform="translate(25,252.828125)"><path id="SvgjsPath1023" d="M 0 0L 120 0L 120 40L 0 40Z" stroke="none" fill="none"></path><g id="SvgjsG1024"><text id="SvgjsText1025" font-family="微软雅黑" text-anchor="middle" font-size="13px" width="120px" fill="#323232" font-weight="400" align="middle" lineHeight="125%" anchor="middle" family="微软雅黑" size="13px" weight="400" font-style="" opacity="1" y="10.375" transform="rotate(0)"><tspan id="SvgjsTspan1026" dy="16" x="60"><tspan id="SvgjsTspan1027" style="text-decoration:;">拍照</tspan></tspan></text></g></g><g id="SvgjsG1028" transform="translate(126,255.828125)"><path id="SvgjsPath1029" d="M 0 0L 120 0L 120 40L 0 40Z" stroke="none" fill="none"></path><g id="SvgjsG1030"><text id="SvgjsText1031" font-family="微软雅黑" text-anchor="middle" font-size="13px" width="120px" fill="#323232" font-weight="400" align="middle" lineHeight="125%" anchor="middle" family="微软雅黑" size="13px" weight="400" font-style="" opacity="1" y="10.375" transform="rotate(0)"><tspan id="SvgjsTspan1032" dy="16" x="60"><tspan id="SvgjsTspan1033" style="text-decoration:;">上传</tspan></tspan></text></g></g><g id="SvgjsG1034" transform="translate(62,308.828125)"><path id="SvgjsPath1035" d="M 0 0L 154 0L 154 52L 0 52Z" stroke="none" fill="none"></path><g id="SvgjsG1036"><text id="SvgjsText1037" font-family="微软雅黑" text-anchor="middle" font-size="17px" width="154px" fill="#323232" font-weight="700" align="middle" lineHeight="125%" anchor="middle" family="微软雅黑" size="17px" weight="700" font-style="" opacity="1" y="13.375" transform="rotate(0)"><tspan id="SvgjsTspan1038" dy="21" x="77"><tspan id="SvgjsTspan1039" style="text-decoration:;">用户注册/添加人脸</tspan></tspan></text></g></g><g id="SvgjsG1040" transform="translate(62,346.828125)"><path id="SvgjsPath1041" d="M 0 0L 153.5 0L 153.5 54L 0 54Z" stroke="none" fill="none"></path><g id="SvgjsG1042"><text id="SvgjsText1043" font-family="微软雅黑" text-anchor="middle" font-size="13px" width="154px" fill="#323232" font-weight="400" align="middle" lineHeight="125%" anchor="middle" family="微软雅黑" size="13px" weight="400" font-style="" opacity="1" y="8.875" transform="rotate(0)"><tspan id="SvgjsTspan1044" dy="16" x="77"><tspan id="SvgjsTspan1045" style="text-decoration:;">用户通过网页、后台录</tspan></tspan><tspan id="SvgjsTspan1046" dy="16" x="77"><tspan id="SvgjsTspan1047" style="text-decoration:;">入，或管理员人手动录入</tspan></tspan></text></g></g><g id="SvgjsG1048"><path id="SvgjsPath1049" d="M251.5 245.328125L351.5 245.328125L351.5 245.328125L453 245.328125" stroke="#323232" stroke-width="2" fill="none" marker-end="url(#SvgjsMarker1050)"></path><rect id="SvgjsRect1052" width="81" height="19" x="311.75" y="235.82812499999997" fill="#ffffff"></rect><text id="SvgjsText1053" font-family="微软雅黑" text-anchor="middle" font-size="15px" width="81px" fill="#323232" font-weight="400" align="top" lineHeight="19px" anchor="middle" family="微软雅黑" size="15px" weight="400" font-style="" opacity="1" y="233.95312499999997" transform="rotate(0)"><tspan id="SvgjsTspan1054" dy="18" x="352.25"><tspan id="SvgjsTspan1055" style="text-decoration:;">用户Id+人脸</tspan></tspan></text></g><g id="SvgjsG1056" transform="translate(449,181.84507415254237)"><path id="SvgjsPath1057" d="M 0 0L 132 0L 132 126.96610169491527L 0 126.96610169491527Z" stroke="none" fill="url(#SvgjsPattern1058)"></path></g><g id="SvgjsG1060" transform="translate(438,308.828125)"><path id="SvgjsPath1061" d="M 0 0L 154 0L 154 52L 0 52Z" stroke="none" fill="none"></path><g id="SvgjsG1062"><text id="SvgjsText1063" font-family="微软雅黑" text-anchor="middle" font-size="17px" width="154px" fill="#323232" font-weight="700" align="middle" lineHeight="125%" anchor="middle" family="微软雅黑" size="17px" weight="700" font-style="" opacity="1" y="13.375" transform="rotate(0)"><tspan id="SvgjsTspan1064" dy="21" x="77"><tspan id="SvgjsTspan1065" style="text-decoration:;">人脸注册</tspan></tspan></text></g></g><g id="SvgjsG1066" transform="translate(438.25,337.828125)"><path id="SvgjsPath1067" d="M 0 0L 153.5 0L 153.5 54L 0 54Z" stroke="none" fill="none"></path><g id="SvgjsG1068"><text id="SvgjsText1069" font-family="微软雅黑" text-anchor="middle" font-size="15px" width="154px" fill="#323232" font-weight="400" align="middle" lineHeight="125%" anchor="middle" family="微软雅黑" size="15px" weight="400" font-style="" opacity="1" y="15.625" transform="rotate(0)"><tspan id="SvgjsTspan1070" dy="18" x="77"><tspan id="SvgjsTspan1071" style="text-decoration:;">百度智能云人脸库</tspan></tspan></text></g></g><g id="SvgjsG1072" transform="translate(51.000000000000085,609.3281250000001)"><path id="SvgjsPath1073" d="M 0 0L 75 0L 75 75L 0 75Z" stroke="none" fill="url(#SvgjsPattern1074)"></path><g id="SvgjsG1076"><text id="SvgjsText1077" font-family="微软雅黑" text-anchor="middle" font-size="17px" width="115px" fill="#323232" font-weight="700" align="middle" lineHeight="125%" anchor="middle" family="微软雅黑" size="17px" weight="700" font-style="" opacity="1" y="77.375" transform="rotate(0)"><tspan id="SvgjsTspan1078" dy="21" x="37.5"><tspan id="SvgjsTspan1079" style="text-decoration:;">用户</tspan></tspan></text></g></g><g id="SvgjsG1080"><path id="SvgjsPath1081" d="M126 646.8281250000001L186 646.8281250000001L186 646.8281250000001L243.39999999999998 646.8281250000001" stroke="#323232" stroke-width="2" fill="none" marker-end="url(#SvgjsMarker1082)"></path></g><g id="SvgjsG1084" transform="translate(246,614.3281250000001)"><path id="SvgjsPath1085" d="M 0 0L 77 0L 77 65L 0 65Z" stroke="none" fill="url(#SvgjsPattern1086)"></path><g id="SvgjsG1088"><text id="SvgjsText1089" font-family="微软雅黑" text-anchor="middle" font-size="13px" width="117px" fill="#323232" font-weight="400" align="middle" lineHeight="125%" anchor="middle" family="微软雅黑" size="13px" weight="400" font-style="" opacity="1" y="70.375" transform="rotate(0)"></text></g></g><g id="SvgjsG1090" transform="translate(227.5,674.3281250000001)"><path id="SvgjsPath1091" d="M 0 0L 120 0L 120 40L 0 40Z" stroke="none" fill="none"></path><g id="SvgjsG1092"><text id="SvgjsText1093" font-family="微软雅黑" text-anchor="middle" font-size="17px" width="120px" fill="#323232" font-weight="700" align="middle" lineHeight="125%" anchor="middle" family="微软雅黑" size="17px" weight="700" font-style="" opacity="1" y="7.375" transform="rotate(0)"><tspan id="SvgjsTspan1094" dy="21" x="60"><tspan id="SvgjsTspan1095" style="text-decoration:;">PC端</tspan></tspan></text></g></g><g id="SvgjsG1096" transform="translate(28.500000000000085,704.3281250000001)"><path id="SvgjsPath1097" d="M 0 0L 120 0L 120 40L 0 40Z" stroke="none" fill="none"></path><g id="SvgjsG1098"><text id="SvgjsText1099" font-family="微软雅黑" text-anchor="middle" font-size="13px" width="120px" fill="#323232" font-weight="400" align="middle" lineHeight="125%" anchor="middle" family="微软雅黑" size="13px" weight="400" font-style="" opacity="1" y="10.375" transform="rotate(0)"><tspan id="SvgjsTspan1100" dy="16" x="60"><tspan id="SvgjsTspan1101" style="text-decoration:;">待识别用户</tspan></tspan></text></g></g><g id="SvgjsG1102" transform="translate(224.5,704.3281250000001)"><path id="SvgjsPath1103" d="M 0 0L 120 0L 120 40L 0 40Z" stroke="none" fill="none"></path><g id="SvgjsG1104"><text id="SvgjsText1105" font-family="微软雅黑" text-anchor="middle" font-size="13px" width="120px" fill="#323232" font-weight="400" align="middle" lineHeight="125%" anchor="middle" family="微软雅黑" size="13px" weight="400" font-style="" opacity="1" y="1.875" transform="rotate(0)"><tspan id="SvgjsTspan1106" dy="16" x="60"><tspan id="SvgjsTspan1107" style="text-decoration:;">用户进入登录点击认</tspan></tspan><tspan id="SvgjsTspan1108" dy="16" x="60"><tspan id="SvgjsTspan1109" style="text-decoration:;">证生成二维码</tspan></tspan></text></g></g><g id="SvgjsG1110" transform="translate(266.5,468.0781250000001)"><path id="SvgjsPath1111" d="M 0 0L 36 0L 36 80L 0 80Z" stroke="none" fill="url(#SvgjsPattern1112)"></path><g id="SvgjsG1114"><text id="SvgjsText1115" font-family="微软雅黑" text-anchor="middle" font-size="13px" width="76px" fill="#323232" font-weight="400" align="middle" lineHeight="125%" anchor="middle" family="微软雅黑" size="13px" weight="400" font-style="" opacity="1" y="85.375" transform="rotate(0)"></text></g></g><g id="SvgjsG1116"><path id="SvgjsPath1117" d="M284.5 614.3281250000001L284.5 581.2031250000001L284.5 581.2031250000001L284.5 550.6781250000001" stroke="#323232" stroke-width="2" fill="none" marker-end="url(#SvgjsMarker1118)"></path><rect id="SvgjsRect1120" width="70" height="19" x="249.5" y="573.0031250000002" fill="#ffffff"></rect><text id="SvgjsText1121" font-family="微软雅黑" text-anchor="middle" font-size="15px" width="70px" fill="#323232" font-weight="400" align="top" lineHeight="19px" anchor="middle" family="微软雅黑" size="15px" weight="400" font-style="" opacity="1" y="571.1281250000002" transform="rotate(0)"><tspan id="SvgjsTspan1122" dy="18" x="284.5"><tspan id="SvgjsTspan1123" style="text-decoration:;">1.发送请求</tspan></tspan></text></g><g id="SvgjsG1124" transform="translate(145,488.0781250000001)"><path id="SvgjsPath1125" d="M 0 0L 120 0L 120 40L 0 40Z" stroke="none" fill="none"></path><g id="SvgjsG1126"><text id="SvgjsText1127" font-family="微软雅黑" text-anchor="middle" font-size="17px" width="120px" fill="#323232" font-weight="700" align="middle" lineHeight="125%" anchor="middle" family="微软雅黑" size="17px" weight="700" font-style="" opacity="1" y="7.375" transform="rotate(0)"><tspan id="SvgjsTspan1128" dy="21" x="60"><tspan id="SvgjsTspan1129" style="text-decoration:;">服务器</tspan></tspan></text></g></g><g id="SvgjsG1130" transform="translate(448.1666666666665,498.1336026375261)"><path id="SvgjsPath1131" d="M 0 0L 43.5 0L 43.5 45.5L 0 45.5Z" stroke="none" fill="url(#SvgjsPattern1132)"></path></g><g id="SvgjsG1134" transform="translate(497.75,498.1336026375261)"><path id="SvgjsPath1135" d="M 0 0L 120 0L 120 40L 0 40Z" stroke="none" fill="none"></path><g id="SvgjsG1136"><text id="SvgjsText1137" font-family="微软雅黑" text-anchor="middle" font-size="17px" width="120px" fill="#323232" font-weight="700" align="middle" lineHeight="125%" anchor="middle" family="微软雅黑" size="17px" weight="700" font-style="" opacity="1" y="7.375" transform="rotate(0)"><tspan id="SvgjsTspan1138" dy="21" x="60"><tspan id="SvgjsTspan1139" style="text-decoration:;">微信开放平台</tspan></tspan></text></g></g><g id="SvgjsG1140"><path id="SvgjsPath1141" d="M284.5 468.0781250000001L284.5 438.0781250000001L469.9166666666665 438.0781250000001L469.9166666666665 494.5336026375261" stroke="#323232" stroke-width="2" fill="none" marker-end="url(#SvgjsMarker1142)"></path><rect id="SvgjsRect1144" width="88" height="19" x="346.43607215209624" y="428.5781250000001" fill="#ffffff"></rect><text id="SvgjsText1145" font-family="微软雅黑" text-anchor="middle" font-size="15px" width="88px" fill="#323232" font-weight="400" align="top" lineHeight="19px" anchor="middle" family="微软雅黑" size="15px" weight="400" font-style="" opacity="1" y="426.7031250000001" transform="rotate(0)"><tspan id="SvgjsTspan1146" dy="18" x="390.43607215209624"><tspan id="SvgjsTspan1147" style="text-decoration:;">2.请求二维码</tspan></tspan></text></g><g id="SvgjsG1148"><path id="SvgjsPath1149" d="M447.1666666666665 520.8836026375261L375.33333333333326 520.8836026375261L375.33333333333326 508.0781250000001L305.1 508.0781250000001" stroke="#323232" stroke-width="2" fill="none" marker-end="url(#SvgjsMarker1150)"></path><rect id="SvgjsRect1152" width="75" height="19" x="337.83333333333326" y="505.7808638187631" fill="#ffffff"></rect><text id="SvgjsText1153" font-family="微软雅黑" text-anchor="middle" font-size="15px" width="75px" fill="#323232" font-weight="400" align="top" lineHeight="19px" anchor="middle" family="微软雅黑" size="15px" weight="400" font-style="" opacity="1" y="503.9058638187631" transform="rotate(0)"><tspan id="SvgjsTspan1154" dy="18" x="375.33333333333326"><tspan id="SvgjsTspan1155" style="text-decoration:;">传回二维码</tspan></tspan></text></g><g id="SvgjsG1156"><path id="SvgjsPath1157" d="M300 537.828125L389 537.828125L389 641.828125L410 641.828125" stroke="#323232" stroke-width="2" fill="none" marker-end="url(#SvgjsMarker1158)"></path></g><g id="SvgjsG1160"><path id="SvgjsPath1161" d="M323 646.8281250000001L408.5000000000001 646.8281250000001L408.5000000000001 646.8281250000001L494.0000000000001 646.8281250000001" stroke="#323232" stroke-width="2" fill="none" marker-end="url(#SvgjsMarker1162)"></path><rect id="SvgjsRect1164" width="78" height="16" x="369.50000000000006" y="638.8281250000001" fill="#ffffff"></rect><text id="SvgjsText1165" font-family="微软雅黑" text-anchor="middle" font-size="13px" width="78px" fill="#323232" font-weight="400" align="top" lineHeight="16px" anchor="middle" family="微软雅黑" size="13px" weight="400" font-style="" opacity="1" y="637.2031250000001" transform="rotate(0)"><tspan id="SvgjsTspan1166" dy="16" x="408.50000000000006"><tspan id="SvgjsTspan1167" style="text-decoration:;">用户微信扫码</tspan></tspan></text></g><g id="SvgjsG1168" transform="translate(481.0000000000001,596.8281250000001)"><path id="SvgjsPath1169" d="M 0 0L 100 0L 100 100L 0 100Z" stroke="none" fill="url(#SvgjsPattern1170)"></path></g><g id="SvgjsG1172"><path id="SvgjsPath1173" d="M582 245.328125L639.5 245.328125L639.5 245.328125L694.4 245.328125" stroke="#323232" stroke-width="2" fill="none" marker-end="url(#SvgjsMarker1174)"></path></g><g id="SvgjsG1176" transform="translate(698,192.87714460784315)"><path id="SvgjsPath1177" d="M 0 0L 107 0L 107 104.90196078431372L 0 104.90196078431372Z" stroke="none" fill="url(#SvgjsPattern1178)"></path></g><g id="SvgjsG1180" transform="translate(674.5,308.828125)"><path id="SvgjsPath1181" d="M 0 0L 154 0L 154 52L 0 52Z" stroke="none" fill="none"></path><g id="SvgjsG1182"><text id="SvgjsText1183" font-family="微软雅黑" text-anchor="middle" font-size="17px" width="154px" fill="#323232" font-weight="700" align="middle" lineHeight="125%" anchor="middle" family="微软雅黑" size="17px" weight="700" font-style="" opacity="1" y="13.375" transform="rotate(0)"><tspan id="SvgjsTspan1184" dy="21" x="77"><tspan id="SvgjsTspan1185" style="text-decoration:;">人脸识别服务</tspan></tspan></text></g></g><g id="SvgjsG1186"><path id="SvgjsPath1187" d="M582.0000000000001 646.8281250000001L751.5 646.8281250000001L751.5 364.428125" stroke="#323232" stroke-width="2" fill="none" marker-end="url(#SvgjsMarker1188)"></path><rect id="SvgjsRect1190" width="52" height="16" x="725.5" y="582.3781250000001" fill="#ffffff"></rect><text id="SvgjsText1191" font-family="微软雅黑" text-anchor="middle" font-size="13px" width="52px" fill="#323232" font-weight="400" align="top" lineHeight="16px" anchor="middle" family="微软雅黑" size="13px" weight="400" font-style="" opacity="1" y="580.7531250000001" transform="rotate(0)"><tspan id="SvgjsTspan1192" dy="16" x="751.5"><tspan id="SvgjsTspan1193" style="text-decoration:;">拍照上传</tspan></tspan></text></g><g id="SvgjsG1194" transform="translate(659.8333333333334,36.66145833333333)"><path id="SvgjsPath1195" d="M 0 0L 80 0L 80 34.166666666666664L 0 34.166666666666664Z" stroke="rgba(13,71,161,1)" stroke-width="2" fill="none"></path><g id="SvgjsG1196"><text id="SvgjsText1197" font-family="微软雅黑" text-anchor="middle" font-size="13px" width="60px" fill="#323232" font-weight="400" align="middle" lineHeight="125%" anchor="middle" family="微软雅黑" size="13px" weight="400" font-style="" opacity="1" y="7.458333333333332" transform="rotate(0)"><tspan id="SvgjsTspan1198" dy="16" x="40"><tspan id="SvgjsTspan1199" style="text-decoration:;">人脸检测</tspan></tspan></text></g></g><g id="SvgjsG1200" transform="translate(761.5,36.661458333333336)"><path id="SvgjsPath1201" d="M 0 0L 80 0L 80 34.166666666666664L 0 34.166666666666664Z" stroke="rgba(13,71,161,1)" stroke-width="2" fill="none"></path><g id="SvgjsG1202"><text id="SvgjsText1203" font-family="微软雅黑" text-anchor="middle" font-size="13px" width="60px" fill="#323232" font-weight="400" align="middle" lineHeight="125%" anchor="middle" family="微软雅黑" size="13px" weight="400" font-style="" opacity="1" y="7.458333333333332" transform="rotate(0)"><tspan id="SvgjsTspan1204" dy="16" x="40"><tspan id="SvgjsTspan1205" style="text-decoration:;">活体识别</tspan></tspan></text></g></g><g id="SvgjsG1206" transform="translate(659.8333333333334,87.49479166666669)"><path id="SvgjsPath1207" d="M 0 0L 80 0L 80 34.166666666666664L 0 34.166666666666664Z" stroke="rgba(13,71,161,1)" stroke-width="2" fill="none"></path><g id="SvgjsG1208"><text id="SvgjsText1209" font-family="微软雅黑" text-anchor="middle" font-size="13px" width="60px" fill="#323232" font-weight="400" align="middle" lineHeight="125%" anchor="middle" family="微软雅黑" size="13px" weight="400" font-style="" opacity="1" y="7.458333333333332" transform="rotate(0)"><tspan id="SvgjsTspan1210" dy="16" x="40"><tspan id="SvgjsTspan1211" style="text-decoration:;">遮挡检测</tspan></tspan></text></g></g><g id="SvgjsG1212" transform="translate(761.5,87.49479166666669)"><path id="SvgjsPath1213" d="M 0 0L 80 0L 80 34.166666666666664L 0 34.166666666666664Z" stroke="rgba(13,71,161,1)" stroke-width="2" fill="none"></path><g id="SvgjsG1214"><text id="SvgjsText1215" font-family="微软雅黑" text-anchor="middle" font-size="13px" width="60px" fill="#323232" font-weight="400" align="middle" lineHeight="125%" anchor="middle" family="微软雅黑" size="13px" weight="400" font-style="" opacity="1" y="7.458333333333332" transform="rotate(0)"><tspan id="SvgjsTspan1216" dy="16" x="40"><tspan id="SvgjsTspan1217" style="text-decoration:;">人脸对比</tspan></tspan></text></g></g><g id="SvgjsG1218" transform="translate(649.8333333333334,24.99479166666667)"><path id="SvgjsPath1219" d="M 0 0L 203.33333333333326 0L 203.33333333333326 107.49999999999999L 0 107.49999999999999Z" stroke-dasharray="3,4" stroke="rgba(13,71,161,1)" stroke-width="2" fill="none"></path><g id="SvgjsG1220"><text id="SvgjsText1221" font-family="微软雅黑" text-anchor="middle" font-size="13px" width="184px" fill="#323232" font-weight="400" align="middle" lineHeight="125%" anchor="middle" family="微软雅黑" size="13px" weight="400" font-style="" opacity="1" y="44.12499999999999" transform="rotate(0)"></text></g></g><g id="SvgjsG1222"><path id="SvgjsPath1223" d="M751.5 191.87714460784315L751.5 162.68596813725492L751.5 162.68596813725492L751.5 136.09479166666665" stroke="#323232" stroke-width="2" fill="none" marker-end="url(#SvgjsMarker1224)"></path></g><g id="SvgjsG1226"><path id="SvgjsPath1227" d="M806 245.328125L863.5 245.328125L863.5 245.328125L918.4000000000001 245.328125" stroke="#323232" stroke-width="2" fill="none" marker-end="url(#SvgjsMarker1228)"></path></g><g id="SvgjsG1230" transform="translate(922,195.328125)"><path id="SvgjsPath1231" d="M 0 0L 100 0L 100 100L 0 100Z" stroke="none" fill="url(#SvgjsPattern1232)"></path></g><g id="SvgjsG1234" transform="translate(894.9999999999993,308.828125)"><path id="SvgjsPath1235" d="M 0 0L 154 0L 154 52L 0 52Z" stroke="none" fill="none"></path><g id="SvgjsG1236"><text id="SvgjsText1237" font-family="微软雅黑" text-anchor="middle" font-size="17px" width="154px" fill="#323232" font-weight="700" align="middle" lineHeight="125%" anchor="middle" family="微软雅黑" size="17px" weight="700" font-style="" opacity="1" y="13.375" transform="rotate(0)"><tspan id="SvgjsTspan1238" dy="21" x="77"><tspan id="SvgjsTspan1239" style="text-decoration:;">用户ID</tspan></tspan></text></g></g><g id="SvgjsG1240" transform="translate(468.1666666666671,688.5505030582813)"><path id="SvgjsPath1241" d="M 0 0L 25.166666666666515 0L 25.166666666666515 25.777621941718735L 0 25.777621941718735Z" stroke="none" fill="url(#SvgjsPattern1242)"></path></g><g id="SvgjsG1244" transform="translate(491.6666666666664,684.3281250000001)"><path id="SvgjsPath1245" d="M 0 0L 71.75 0L 71.75 37.66666666666663L 0 37.66666666666663Z" stroke="none" fill="none"></path><g id="SvgjsG1246"><text id="SvgjsText1247" font-family="微软雅黑" text-anchor="middle" font-size="17px" width="72px" fill="#323232" font-weight="700" align="middle" lineHeight="125%" anchor="middle" family="微软雅黑" size="17px" weight="700" font-style="" opacity="1" y="6.208333333333314" transform="rotate(0)"><tspan id="SvgjsTspan1248" dy="21" x="36"><tspan id="SvgjsTspan1249" style="text-decoration:;">小程序端</tspan></tspan></text></g></g><g id="SvgjsG1250" transform="translate(921.9999999999998,400.828125)"><path id="SvgjsPath1251" d="M 0 0L 100 0L 100 100L 0 100Z" stroke="none" fill="url(#SvgjsPattern1252)"></path></g><g id="SvgjsG1254"><path id="SvgjsPath1255" d="M971.9999999999993 361.828125L971.9999999999993 380.828125L971.9999999999998 380.828125L971.9999999999998 397.228125" stroke="#323232" stroke-width="2" fill="none" marker-end="url(#SvgjsMarker1256)"></path></g><g id="SvgjsG1258" transform="translate(908.0624999999995,500.1614583333335)"><path id="SvgjsPath1259" d="M 0 0L 127.87499999999932 0L 127.87499999999932 41.444288608385364L 0 41.444288608385364Z" stroke="none" fill="none"></path><g id="SvgjsG1260"><text id="SvgjsText1261" font-family="微软雅黑" text-anchor="middle" font-size="17px" width="128px" fill="#323232" font-weight="700" align="middle" lineHeight="125%" anchor="middle" family="微软雅黑" size="17px" weight="700" font-style="" opacity="1" y="8.097144304192682" transform="rotate(0)"><tspan id="SvgjsTspan1262" dy="21" x="64"><tspan id="SvgjsTspan1263" style="text-decoration:;">自建信息库</tspan></tspan></text></g></g><g id="SvgjsG1264" transform="translate(921.9999999999995,579.328125)"><path id="SvgjsPath1265" d="M 0 0L 100 0L 100 100L 0 100Z" stroke="none" fill="url(#SvgjsPattern1266)"></path></g><g id="SvgjsG1268"><path id="SvgjsPath1269" d="M971.9999999999991 542.6057469417187L971.9999999999991 560.4669359708594L971.9999999999991 560.4669359708594L971.9999999999991 575.7281250000001" stroke="#323232" stroke-width="2" fill="none" marker-end="url(#SvgjsMarker1270)"></path></g><g id="SvgjsG1272" transform="translate(911.9999999999993,680.9390802750524)"><path id="SvgjsPath1273" d="M 0 0L 120 0L 120 40L 0 40Z" stroke="none" fill="none"></path><g id="SvgjsG1274"><text id="SvgjsText1275" font-family="微软雅黑" text-anchor="middle" font-size="13px" width="120px" fill="#323232" font-weight="400" align="middle" lineHeight="125%" anchor="middle" family="微软雅黑" size="13px" weight="400" font-style="" opacity="1" y="10.375" transform="rotate(0)"><tspan id="SvgjsTspan1276" dy="16" x="60"><tspan id="SvgjsTspan1277" style="text-decoration:;">用户基本信息</tspan></tspan></text></g></g><g id="SvgjsG1278"><path id="SvgjsPath1279" d="M1022.9999999999995 629.328125L1085.4444444444443 629.328125L1085.4444444444443 629.328125L1148.888888888889 629.328125" stroke="#323232" stroke-width="2" fill="none" marker-end="url(#SvgjsMarker1280)"></path></g><g id="SvgjsG1282" transform="translate(1154.1818181818173,596.8281250000001)"><path id="SvgjsPath1283" d="M 0 0L 77 0L 77 65L 0 65Z" stroke="none" fill="url(#SvgjsPattern1284)"></path><g id="SvgjsG1286"><text id="SvgjsText1287" font-family="微软雅黑" text-anchor="middle" font-size="13px" width="117px" fill="#323232" font-weight="400" align="middle" lineHeight="125%" anchor="middle" family="微软雅黑" size="13px" weight="400" font-style="" opacity="1" y="70.375" transform="rotate(0)"></text></g></g><g id="SvgjsG1288" transform="translate(1021.9999999999998,591.8281249999999)"><path id="SvgjsPath1289" d="M 0 0L 120 0L 120 40L 0 40Z" stroke="none" fill="none"></path><g id="SvgjsG1290"><text id="SvgjsText1291" font-family="微软雅黑" text-anchor="middle" font-size="13px" width="120px" fill="#323232" font-weight="400" align="middle" lineHeight="125%" anchor="middle" family="微软雅黑" size="13px" weight="400" font-style="" opacity="1" y="10.375" transform="rotate(0)"><tspan id="SvgjsTspan1292" dy="16" x="60"><tspan id="SvgjsTspan1293" style="text-decoration:;">用户确认登录</tspan></tspan></text></g></g><g id="SvgjsG1294" transform="translate(1137.5426136363621,670.0099431818182)"><path id="SvgjsPath1295" d="M 0 0L 110.27840909091105 0L 110.27840909091105 61.85827418646841L 0 61.85827418646841Z" stroke="none" fill="none"></path><g id="SvgjsG1296"><text id="SvgjsText1297" font-family="微软雅黑" text-anchor="middle" font-size="17px" width="111px" fill="#323232" font-weight="700" align="middle" lineHeight="125%" anchor="middle" family="微软雅黑" size="17px" weight="700" font-style="" opacity="1" y="7.304137093234203" transform="rotate(0)"><tspan id="SvgjsTspan1298" dy="21" x="55.5"><tspan id="SvgjsTspan1299" style="text-decoration:;">用户返回PC端</tspan></tspan><tspan id="SvgjsTspan1300" dy="21" x="55.5"><tspan id="SvgjsTspan1301" style="text-decoration:;">进入系统</tspan></tspan></text></g></g><g id="SvgjsG1302" transform="translate(371.6666666666665,574.3281250000001)"><path id="SvgjsPath1303" d="M 0 0L 120 0L 120 40L 0 40Z" stroke="none" fill="none"></path><g id="SvgjsG1304"><text id="SvgjsText1305" font-family="微软雅黑" text-anchor="middle" font-size="13px" width="120px" fill="#323232" font-weight="400" align="middle" lineHeight="125%" anchor="middle" family="微软雅黑" size="13px" weight="400" font-style="" opacity="1" y="1.875" transform="rotate(0)"><tspan id="SvgjsTspan1306" dy="16" x="60"><tspan id="SvgjsTspan1307" style="text-decoration:;">4. 传回二维码</tspan></tspan><tspan id="SvgjsTspan1308" dy="16" x="60"><tspan id="SvgjsTspan1309" style="text-decoration:;">和认证token</tspan></tspan></text></g></g><g id="SvgjsG1310"><path id="SvgjsPath1311" d="M564.4165607717856 703.1760109464288C 772.8032442901829 703.1614583333335 1081.9999999999998 841.2147026235164 1081.8747249326618 635.4259446393792" stroke-dasharray="8,5" stroke="#323232" stroke-width="2" fill="none" marker-end="url(#SvgjsMarker1312)"></path><rect id="SvgjsRect1314" width="78" height="16" x="862.3376273218743" y="738.4663048070447" fill="#ffffff"></rect><text id="SvgjsText1315" font-family="微软雅黑" text-anchor="middle" font-size="13px" width="78px" fill="#323232" font-weight="400" align="top" lineHeight="16px" anchor="middle" family="微软雅黑" size="13px" weight="400" font-style="" opacity="1" y="736.8413048070447" transform="rotate(0)"><tspan id="SvgjsTspan1316" dy="16" x="901.3376273218743"><tspan id="SvgjsTspan1317" style="text-decoration:;">小程序端点击</tspan></tspan></text></g><g id="SvgjsG1318"><path id="SvgjsPath1319" d="M1192.6818181818173 596.8281250000001C 1192.6818181818173 569.5190340909091 1192.6818181818173 555.8644886363637 1192.6818181818173 528.5553977272727" stroke="#323232" stroke-width="2" fill="none" marker-end="url(#SvgjsMarker1320)"></path></g><g id="SvgjsG1322" transform="translate(1156.9545454545446,442.0099431818181)"><path id="SvgjsPath1323" d="M 0 0L 32.45454545454572 0L 32.45454545454572 32.45454545454572L 0 32.45454545454572Z" stroke="none" fill="url(#SvgjsPattern1324)"></path><g id="SvgjsG1326"><text id="SvgjsText1327" font-family="微软雅黑" text-anchor="middle" font-size="13px" width="73px" fill="#323232" font-weight="400" align="middle" lineHeight="125%" anchor="middle" family="微软雅黑" size="13px" weight="400" font-style="" opacity="1" y="37.82954545454572" transform="rotate(0)"></text></g></g><g id="SvgjsG1328" transform="translate(1198.411931818182,442.0099431818181)"><path id="SvgjsPath1329" d="M 0 0L 36.363636363635806 0L 36.363636363635806 32.45454545454572L 0 32.45454545454572Z" stroke="none" fill="url(#SvgjsPattern1330)"></path></g><g id="SvgjsG1332" transform="translate(1156.0909090909088,484.4644886363638)"><path id="SvgjsPath1333" d="M 0 0L 34.181818181817334 0L 34.181818181817334 34.181818181817334L 0 34.181818181817334Z" stroke="none" fill="url(#SvgjsPattern1334)"></path></g><g id="SvgjsG1336" transform="translate(1199.2741477272723,484.46448863636385)"><path id="SvgjsPath1337" d="M 0 0L 34.639204545455186 0L 34.639204545455186 33.09090909090975L 0 33.09090909090975Z" stroke="none" fill="none"></path><g id="SvgjsG1338"><text id="SvgjsText1339" font-family="微软雅黑" text-anchor="middle" font-size="16px" width="35px" fill="#323232" font-weight="700" align="middle" lineHeight="125%" anchor="middle" family="微软雅黑" size="16px" weight="700" font-style="" opacity="1" y="4.545454545454874" transform="rotate(0)"><tspan id="SvgjsTspan1340" dy="20" x="17.5"><tspan id="SvgjsTspan1341" style="text-decoration:;">...</tspan></tspan></text></g></g><g id="SvgjsG1342" transform="translate(1147.4999999999989,435.37357954545473)"><path id="SvgjsPath1343" d="M 0 0L 90.36363636363672 0L 90.36363636363672 88.18181818181807L 0 88.18181818181807Z" stroke-dasharray="3,4" stroke="rgba(50,50,50,1)" stroke-width="3" fill="none"></path><g id="SvgjsG1344"><text id="SvgjsText1345" font-family="微软雅黑" text-anchor="middle" font-size="13px" width="71px" fill="#323232" font-weight="400" align="middle" lineHeight="125%" anchor="middle" family="微软雅黑" size="13px" weight="400" font-style="" opacity="1" y="34.46590909090904" transform="rotate(0)"></text></g></g><g id="SvgjsG1346" transform="translate(1031.999999999999,465.55539772727366)"><path id="SvgjsPath1347" d="M 0 0L 154 0L 154 52L 0 52Z" stroke="none" fill="none"></path><g id="SvgjsG1348"><text id="SvgjsText1349" font-family="微软雅黑" text-anchor="middle" font-size="17px" width="154px" fill="#323232" font-weight="700" align="middle" lineHeight="125%" anchor="middle" family="微软雅黑" size="17px" weight="700" font-style="" opacity="1" y="13.375" transform="rotate(0)"><tspan id="SvgjsTspan1350" dy="21" x="77"><tspan id="SvgjsTspan1351" style="text-decoration:;">业务聚合</tspan></tspan></text></g></g><g id="SvgjsG1352" transform="translate(701.5,410.828125)"><path id="SvgjsPath1353" d="M 0 0L 100 0L 100 70L 0 70Z" stroke="rgba(50,50,50,1)" stroke-width="2" fill-opacity="1" fill="#ffffff"></path><g id="SvgjsG1354"><text id="SvgjsText1355" font-family="微软雅黑" text-anchor="middle" font-size="13px" width="80px" fill="#323232" font-weight="400" align="middle" lineHeight="125%" anchor="middle" family="微软雅黑" size="13px" weight="400" font-style="" opacity="1" y="25.375" transform="rotate(0)"><tspan id="SvgjsTspan1356" dy="16" x="50"><tspan id="SvgjsTspan1357" style="text-decoration:;">人脸识别      </tspan></tspan></text></g></g><g id="SvgjsG1358" transform="translate(658.8181818181818,426.41903409090907)"><path id="SvgjsPath1359" d="M 0 0L 39.181818181818244 0L 39.181818181818244 38.81818181818193L 0 38.81818181818193Z" stroke="none" fill="url(#SvgjsPattern1360)"></path></g><g id="SvgjsG1362" transform="translate(766.0833333333343,419.828125)"><path id="SvgjsPath1363" d="M 0 0L 30.4166666666664 0L 30.4166666666664 30.4166666666664L 0 30.4166666666664Z" stroke="none" fill="url(#SvgjsPattern1364)"></path><g id="SvgjsG1366"><text id="SvgjsText1367" font-family="微软雅黑" text-anchor="middle" font-size="13px" width="71px" fill="#323232" font-weight="400" align="middle" lineHeight="125%" anchor="middle" family="微软雅黑" size="13px" weight="400" font-style="" opacity="1" y="35.7916666666664" transform="rotate(0)"><tspan id="SvgjsTspan1368" dy="16" x="15.5"><tspan id="SvgjsTspan1369" style="text-decoration:;">SDK</tspan></tspan></text></g></g></svg>